<?xml version="1.0" encoding="UTF-8" standalone="no"?>
<svg width="22px" height="22px" viewBox="0 0 22 22" version="1.1" xmlns="http://www.w3.org/2000/svg" xmlns:xlink="http://www.w3.org/1999/xlink" xmlns:sketch="http://www.bohemiancoding.com/sketch/ns">
    <!-- Generator: Sketch 3.4.4 (17249) - http://www.bohemiancoding.com/sketch -->
    <title>calendar</title>
    <desc>Created with Sketch.</desc>
    <defs></defs>
    <g id="Product-Detail-page" stroke="none" stroke-width="1" fill="none" fill-rule="evenodd" sketch:type="MSPage">
        <g id="Desktop-HD-Click-on-datapicker-time" sketch:type="MSArtboardGroup" transform="translate(-1143.000000, -227.000000)" fill="#183D68">
            <g id="Data-picker-time" sketch:type="MSLayerGroup" transform="translate(1006.000000, 216.000000)">
                <g id="Group" sketch:type="MSShapeGroup">
                    <g id="clock">
                        <g id="calendar" transform="translate(137.000000, 11.000000)">
                            <path d="M19.8,21.7555556 L2.2,21.7555556 C0.987066667,21.7555556 0,20.7684889 0,19.5555556 L0,3.42222222 C0,2.20928889 0.8228,1.22222222 1.83333333,1.22222222 L2.93333333,1.22222222 L2.93333333,2.68888889 L1.83333333,2.68888889 C1.7072,2.68888889 1.46666667,2.97488889 1.46666667,3.42222222 L1.46666667,19.5555556 C1.46666667,19.9596222 1.79593333,20.2888889 2.2,20.2888889 L19.8,20.2888889 C20.2040667,20.2888889 20.5333333,19.9596222 20.5333333,19.5555556 L20.5333333,3.42222222 C20.5333333,2.97488889 20.2928,2.68888889 20.1666667,2.68888889 L19.0666667,2.68888889 L19.0666667,1.22222222 L20.1666667,1.22222222 C21.1772,1.22222222 22,2.20928889 22,3.42222222 L22,19.5555556 C22,20.7684889 21.0129333,21.7555556 19.8,21.7555556" id="Fill-133"></path>
                            <path d="M5.13333333,4.4 C4.72853333,4.4 4.4,4.07146667 4.4,3.66666667 L4.4,0.733333333 C4.4,0.328533333 4.72853333,0 5.13333333,0 C5.53813333,0 5.86666667,0.328533333 5.86666667,0.733333333 L5.86666667,3.66666667 C5.86666667,4.07146667 5.53813333,4.4 5.13333333,4.4" id="Fill-134"></path>
                            <path d="M16.8666667,4.4 C16.4618667,4.4 16.1333333,4.07146667 16.1333333,3.66666667 L16.1333333,0.733333333 C16.1333333,0.328533333 16.4618667,0 16.8666667,0 C17.2714667,0 17.6,0.328533333 17.6,0.733333333 L17.6,3.66666667 C17.6,4.07146667 17.2714667,4.4 16.8666667,4.4" id="Fill-135"></path>
                            <path d="M7.33333333,1.46666667 L14.6666667,1.46666667 L14.6666667,2.93333333 L7.33333333,2.93333333 L7.33333333,1.46666667 Z" id="Fill-136"></path>
                            <path d="M1.46666667,5.86666667 L20.5333333,5.86666667 L20.5333333,7.33333333 L1.46666667,7.33333333 L1.46666667,5.86666667 Z" id="Fill-137"></path>
                            <path d="M11,16.2509787 L7.33333333,11.6676453 L7.86744961,11 L11,14.915688 L14.1325504,11 L14.6666667,11.6676453 L11,16.2509787" id="Fill-37"></path>
                        </g>
                    </g>
                </g>
            </g>
        </g>
    </g>
</svg>