<?xml version="1.0" encoding="UTF-8" standalone="no"?>
<svg width="18px" height="18px" viewBox="0 0 18 18" version="1.1" xmlns="http://www.w3.org/2000/svg" xmlns:xlink="http://www.w3.org/1999/xlink" xmlns:sketch="http://www.bohemiancoding.com/sketch/ns">
    <!-- Generator: Sketch 3.4.4 (17249) - http://www.bohemiancoding.com/sketch -->
    <title>pencil</title>
    <desc>Created with Sketch.</desc>
    <defs></defs>
    <g id="User-dashboard" stroke="none" stroke-width="1" fill="none" fill-rule="evenodd" sketch:type="MSPage">
        <g id="Desktop-00" sketch:type="MSArtboardGroup" transform="translate(-470.000000, -309.000000)" fill="#C5A981">
            <g id="User-Profile" sketch:type="MSLayerGroup" transform="translate(151.000000, 120.000000)">
                <g id="pencil" transform="translate(319.000000, 189.000000)" sketch:type="MSShapeGroup">
                    <path d="M0.448137931,17.5518621 L1.96137931,11.4976552 L11.1724138,2.28724138 L15.7127586,6.82758621 L6.50234483,16.0386207 L0.448137931,17.5518621 L0.448137931,17.5518621 Z M3.00413793,12.0885517 L2.03462069,15.9653793 L5.91144828,14.9958621 L14.0803448,6.82758621 L11.1724138,3.91965517 L3.00413793,12.0885517 L3.00413793,12.0885517 Z" id="Fill-168"></path>
                    <path d="M5.49372414,15.6953793 C5.10144828,14.1206897 3.87931034,12.8985517 2.30462069,12.5062759 L2.58455172,11.385931 C4.57386207,11.8818621 6.11813793,13.4261379 6.61406897,15.4154483 L5.49372414,15.6953793" id="Fill-169"></path>
                    <path d="M5.37393103,13.4428966 L4.55710345,12.626069 L12.626069,4.55710345 L13.4428966,5.37393103 L5.37393103,13.4428966" id="Fill-170"></path>
                    <path d="M1.24137931,16.7586207 L3.04262069,16.3086207 C2.87627586,15.6438621 2.35613793,15.1237241 1.69137931,14.9573793 L1.24137931,16.7586207" id="Fill-171"></path>
                    <path d="M16.137931,6.40241379 L11.5975862,1.86206897 L13.4062759,0.0533793103 L13.6886897,0.0912413793 C15.8809655,0.383586207 17.6164138,2.11903448 17.9087586,4.31131034 L17.9466207,4.59372414 L16.137931,6.40241379 L16.137931,6.40241379 Z M13.23,1.86206897 L16.137931,4.77 L16.7176552,4.19027586 C16.4122759,2.73413793 15.2658621,1.58772414 13.8097241,1.28234483 L13.23,1.86206897 L13.23,1.86206897 Z" id="Fill-172"></path>
                </g>
            </g>
        </g>
    </g>
</svg>